<?xml version="1.0" encoding="utf-8"?>
<!-- Generator: Adobe Illustrator 24.2.3, SVG Export Plug-In . SVG Version: 6.00 Build 0)  -->
<svg version="1.1" id="Layer_1" xmlns="http://www.w3.org/2000/svg" xmlns:xlink="http://www.w3.org/1999/xlink" x="0px" y="0px"
	 viewBox="0 0 210.9 130.3" style="enable-background:new 0 0 210.9 130.3;" xml:space="preserve">
<style type="text/css">
	.st0{fill:#5D3B97;}
	.st1{fill:#EE2054;}
	.st2{font-family:'PPNeueMachina-InktrapMedium';}
	.st3{font-size:72px;}
</style>
<g>
	<g>
		<path class="st0" d="M125.3,61.3c-1-16.7-10.7-31.3-25.1-40.6c0.5,2.8,0.7,6.3-0.3,9.4c9.7,8,16.1,19,16.8,31.5
			c0.5,9.1-2,17.7-6.8,25.1c0,2.7-0.4,5.9-1.9,9.1c0,0,0,0,0,0c0.2-2.3-0.1-4.7-0.6-7c-1-4.2-3.2-8.5-6.5-12.8
			c-7.6-9.9-18.5-16.7-29-23.3c-1.1-0.7-2.2-1.4-3.3-2.1l-0.3-0.2c-8.1-5.1-15.4-10.2-19.8-16.4c-1.5-2.2-2.4-4.6-2.7-7.1
			c-0.2-2.3,0-4.5,0.8-6.6c0.8-2.2,2-4.2,3.7-6c1.6-1.7,3.6-3.1,5.8-4.1c2.3-1.1,4.9-1.8,7.6-2c4.8-0.4,9.5,0.7,13.4,3.1
			c0.4,0.2,0.8,0.5,1.2,0.8c3.7,2.7,6.1,6.3,6.9,10.3c0.1,0.4,0.2,0.9,0.2,1.3c0.5,4.6-1.1,9-4.5,12.5c-3.4,3.5-8.2,5.7-13.5,6.1
			c0,0,3.5,4.2,9.9,3.8c3-0.2,7.5-1.6,10.9-4.7c3.9-4,6.2-8.9,6.7-14c0.1-1.5,0.1-3,0-4.5c-0.2-2.1-0.8-4.2-1.6-6.2
			c-1.7-4.3-4.8-8-8.9-11c-6-4.3-13.7-6.4-21.5-5.7C55,0.7,47.9,4,42.9,9.2c-1.4,1.5-2.6,3.1-3.6,4.7c-1.9,3.2-3,6.8-3.1,10.5
			c-0.1,1.1,0,2.2,0.1,3.4c0.4,3.8,1.7,7.3,4,10.6l0,0.1c6,8.5,15.7,14.6,26,21c9.8,6.2,20,12.5,26.6,21.2c1.9,2.5,3.4,5,4.3,7.4
			c0,0,0,0,0,0c0,0,0,0.1,0,0.1c0.4,1,0.7,1.9,0.9,2.8c3.3,12.7-2.3,18.8-2.5,19c3.9-2.1,7.5-4.5,10.8-7.3
			C118.8,92.3,126.2,77.5,125.3,61.3z"/>
		<path class="st0" d="M0.1,68.8c1,16.7,10.7,31.3,25.1,40.6c-0.5-2.8-0.7-6.3,0.3-9.4c-9.7-8-16.1-19-16.8-31.5
			c-0.5-9.1,2-17.7,6.8-25.1c0-2.7,0.4-5.9,1.9-9.1c0,0,0,0,0,0c-0.2,2.3,0.1,4.7,0.6,7c1,4.2,3.2,8.5,6.5,12.8
			c7.6,9.9,18.5,16.7,29,23.3c1.1,0.7,2.2,1.4,3.3,2.1l0.3,0.2c8.1,5.1,15.4,10.2,19.8,16.4c1.5,2.2,2.4,4.6,2.7,7.1
			c0.2,2.3,0,4.5-0.8,6.6c-0.8,2.2-2,4.2-3.7,6c-1.6,1.7-3.6,3.1-5.8,4.1c-2.3,1.1-4.9,1.8-7.6,2c-4.8,0.4-9.5-0.7-13.4-3.1
			c-0.4-0.2-0.8-0.5-1.2-0.8c-3.7-2.7-6.1-6.3-6.9-10.3c-0.1-0.4-0.2-0.9-0.2-1.3c-0.5-4.6,1.1-9,4.5-12.5c3.4-3.5,8.2-5.7,13.5-6.1
			c0,0-3.5-4.2-9.9-3.8c-3,0.2-7.5,1.6-10.9,4.7c-3.9,4-6.2,8.9-6.7,14c-0.1,1.5-0.1,3,0,4.5c0.2,2.1,0.8,4.2,1.6,6.2
			c1.7,4.3,4.8,8,8.9,11c6,4.3,13.7,6.4,21.5,5.7c7.8-0.6,14.9-3.8,19.9-9.1c1.4-1.5,2.6-3.1,3.6-4.7c1.9-3.2,3-6.8,3.1-10.5
			c0.1-1.1,0-2.2-0.1-3.4c-0.4-3.8-1.7-7.3-4-10.6l0-0.1c-6-8.5-15.7-14.6-26-21c-9.8-6.2-20-12.5-26.6-21.2c-1.9-2.5-3.4-5-4.3-7.4
			c0,0,0,0,0,0c0,0,0-0.1,0-0.1c-0.4-1-0.7-1.9-0.9-2.8c-3.3-12.7,2.3-18.8,2.5-19c-3.9,2.1-7.5,4.5-10.8,7.3
			C6.6,37.8-0.9,52.7,0.1,68.8z"/>
	</g>
	<text transform="matrix(1 0 0 1 144.6254 110.0431)" class="st1 st2 st3">n.</text>
</g>
</svg>
