<svg xmlns="http://www.w3.org/2000/svg" width="1708" height="648" fill="none"><path stroke="url(#a)" stroke-miterlimit="10" stroke-opacity=".15" d="M1668.41 647.077v-32.303m0 0h38.77m-38.77 0v-32.305m0 32.305h-38.78m77.55 0v32.303m0-32.303v-32.305m-38.77 0h38.77m-38.77 0v-32.303m0 32.303h-38.78m0 32.305v32.303m0-32.303v-32.305m0 32.305h-38.78m116.33-32.305v-32.303m0 0h-38.77m38.77 0v-32.304m-38.77 32.304v-32.304m0 32.304h-38.78m0 32.303v-32.303m0 32.303h-38.78m0 32.305v32.303m0-32.303v-32.305m0 32.305h-38.77m116.33-96.912h38.77m-38.77 0v-32.304m0 32.304h-38.78m0 32.304v-32.304m0 32.304h-38.78m0 32.303v-32.303m0 32.303h-38.77m0 32.305v32.303m0-32.303v-32.305m0 32.305h-38.78m193.88-96.912v-32.304m-38.77 0h38.77m-38.77 0v-32.304m0 32.304h-38.78m0 32.304v-32.304m0 32.304h-38.78m0 32.304v-32.304m0 32.304h-38.77m0 32.303v-32.303m0 32.303h-38.78m193.88-96.911v-32.304m-38.77 0h38.77m-38.77 0V420.95m0 32.304h-38.78m0 32.304v-32.304m0 32.304h-38.78m0 32.304v-32.304m0 32.304h-38.77m0 32.304v-32.304m0 32.304h-38.78m193.88-96.912V420.95m-38.77 0h38.77m-38.77 0v-32.303m0 32.303h-38.78m0 32.304V420.95m0 32.304h-38.78m0 32.304v-32.304m0 32.304h-38.77m0 32.304v-32.304m0 32.304h-38.78m193.88-96.912v-32.303m-38.77 0h38.77m-38.77 0v-32.305m0 32.305h-38.78m0 32.303v-32.303m0 32.303h-38.78m0 32.304V420.95m0 32.304h-38.77m0 32.304v-32.304m0 32.304h-38.78m193.88-96.911v-32.305m-38.77 0h38.77m-38.77 0v-32.303m0 32.303h-38.78m0 32.305v-32.305m0 32.305h-38.78m0 32.303v-32.303m0 32.303h-38.77m0 32.304V420.95m0 32.304h-38.78m193.88-96.912v-32.303m-38.77 0h38.77m-38.77 0v-32.304m0 32.304h-38.78m0 32.303v-32.303m0 32.303h-38.78m0 32.305v-32.305m0 32.305h-38.77m0 32.303v-32.303m0 32.303h-38.78m193.88-96.911v-32.304m-38.77 0h38.77m-38.77 0v-32.304m0 32.304h-38.78m0 32.304v-32.304m0 32.304h-38.78m0 32.303v-32.303m0 32.303h-38.77m0 32.305v-32.305m0 32.305h-38.78m193.88-96.912v-32.304m-38.77 0h38.77m-38.77 0v-32.304m0 32.304h-38.78m0 32.304v-32.304m0 32.304h-38.78m0 32.304v-32.304m0 32.304h-38.77m0 32.303v-32.303m0 32.303h-38.78m193.88-96.911v-32.304m-38.77 0h38.77m-38.77 0v-32.304m0 32.304h-38.78m0 32.304v-32.304m0 32.304h-38.78m0 32.304v-32.304m0 32.304h-38.77m0 32.304v-32.304m0 32.304h-38.78m193.88-96.912v-32.304m-38.77 0h38.77m-38.77 0V162.52m0 32.303h-38.78m0 32.304v-32.304m0 32.304h-38.78m0 32.304v-32.304m0 32.304h-38.77m0 32.304v-32.304m0 32.304h-38.78m193.88-96.912V162.52m-38.77 0h38.77m-38.77 0v-32.304m0 32.304h-38.78m0 32.303V162.52m0 32.303h-38.78m0 32.304v-32.304m0 32.304h-38.77m0 32.304v-32.304m0 32.304h-38.78m193.88-96.911v-32.304m-38.77 0h38.77m-38.77 0V97.912m0 32.304h-38.78m0 32.304v-32.304m0 32.304h-38.78m0 32.303V162.52m0 32.303h-38.77m0 32.304v-32.304m0 32.304h-38.78m193.88-96.911V97.912m-38.77 0h38.77m-38.77 0V65.608m0 32.304h-38.78m0 32.304V97.912m0 32.304h-38.78m0 32.304v-32.304m0 32.304h-38.77m0 32.303V162.52m0 32.303h-38.78m193.88-96.91V65.607m-38.77 0h38.77m-38.77 0V33.304m0 32.304h-38.78m0 32.304V65.608m0 32.304h-38.78m0 32.304V97.912m0 32.304h-38.77m0 32.304v-32.304m0 32.304h-38.78m193.88-96.912V33.304m-38.77 0h38.77m-38.77 0V1m0 32.304h-38.78m0 32.304V33.304m0 32.304h-38.78m0 32.304V65.608m0 32.304h-38.77m0 32.304V97.912m0 32.304h-38.78m193.88-96.912V1h-38.77m0 0h-38.78m0 32.304V1m0 32.304h-38.78m0 32.304V33.304m0 32.304h-38.77m0 32.304V65.608m0 32.304h-38.78M1629.63 1h-38.78m0 32.304V1m0 32.304h-38.77m0 32.304V33.304m0 32.304h-38.78M1590.85 1h-38.77m0 32.304V1m0 32.304h-38.78M1552.08 1h-38.78m0 613.774v32.303m0-32.303v-32.305m0 32.305h-38.78m38.78-32.305v-32.303m0 32.303h-38.78m38.78-32.303v-32.304m0 32.304h-38.78m38.78-32.304v-32.304m0 32.304h-38.78m38.78-32.304v-32.304m0 32.304h-38.78m38.78-32.304V420.95m0 32.304h-38.78m38.78-32.304v-32.303m0 32.303h-38.78m38.78-32.303v-32.305m0 32.305h-38.78m38.78-32.305v-32.303m0 32.303h-38.78m38.78-32.303v-32.304m0 32.304h-38.78m38.78-32.304v-32.304m0 32.304h-38.78m38.78-32.304v-32.304m0 32.304h-38.78m38.78-32.304v-32.304m0 32.304h-38.78m38.78-32.304V162.52m0 32.303h-38.78m38.78-32.303v-32.304m0 32.304h-38.78m38.78-32.304V97.912m0 32.304h-38.78m38.78-32.304V65.608m0 32.304h-38.78m38.78-32.304V33.304m0 32.304h-38.78m38.78-32.304V1m0 32.304h-38.78M1513.3 1h-38.78m0 613.774v32.303m0-32.303v-32.305m0 32.305h-38.77m38.77-32.305v-32.303m0 32.303h-38.77m38.77-32.303v-32.304m0 32.304h-38.77m38.77-32.304v-32.304m0 32.304h-38.77m38.77-32.304v-32.304m0 32.304h-38.77m38.77-32.304V420.95m0 32.304h-38.77m38.77-32.304v-32.303m0 32.303h-38.77m38.77-32.303v-32.305m0 32.305h-38.77m38.77-32.305v-32.303m0 32.303h-38.77m38.77-32.303v-32.304m0 32.304h-38.77m38.77-32.304v-32.304m0 32.304h-38.77m38.77-32.304v-32.304m0 32.304h-38.77m38.77-32.304v-32.304m0 32.304h-38.77m38.77-32.304V162.52m0 32.303h-38.77m38.77-32.303v-32.304m0 32.304h-38.77m38.77-32.304V97.912m0 32.304h-38.77m38.77-32.304V65.608m0 32.304h-38.77m38.77-32.304V33.304m0 32.304h-38.77m38.77-32.304V1m0 32.304h-38.77M1474.52 1h-38.77m0 613.774v32.303m0-32.303v-32.305m0 32.305h-38.78m38.78-32.305v-32.303m0 32.303h-38.78m38.78-32.303v-32.304m0 32.304h-38.78m38.78-32.304v-32.304m0 32.304h-38.78m38.78-32.304v-32.304m0 32.304h-38.78m38.78-32.304V420.95m0 32.304h-38.78m38.78-32.304h-38.78m38.78 0v-32.303m0 0v-32.305m0 32.305h-38.78m38.78-32.305v-32.303m0 32.303h-38.78m38.78-32.303v-32.304m0 32.304h-38.78m38.78-32.304v-32.304m0 32.304h-38.78m38.78-32.304v-32.304m0 32.304h-38.78m38.78-32.304v-32.304m0 32.304h-38.78m38.78-32.304V162.52m0 32.303h-38.78m38.78-32.303v-32.304m0 32.304h-38.78m38.78-32.304V97.912m0 32.304h-38.78m38.78-32.304V65.608m0 32.304h-38.78m38.78-32.304V33.304m0 32.304h-38.78m38.78-32.304V1m0 32.304h-38.78M1435.75 1h-38.78m0 613.774v32.303m0-32.303v-32.305m0 32.305h-38.78m38.78-32.305v-32.303m0 32.303h-38.78m38.78-32.303v-32.304m0 32.304h-38.78m38.78-32.304v-32.304m0 32.304h-38.78m38.78-32.304v-32.304m0 32.304h-38.78m38.78-32.304V420.95m0 32.304h-38.78m38.78-32.304v-32.303m0 32.303h-38.78m38.78-32.303v-32.305m0 32.305h-38.78m38.78-32.305v-32.303m0 32.303h-38.78m38.78-32.303v-32.304m0 32.304h-38.78m38.78-32.304v-32.304m0 32.304h-38.78m38.78-32.304v-32.304m0 32.304h-38.78m38.78-32.304v-32.304m0 32.304h-38.78m38.78-32.304V162.52m0 32.303h-38.78m38.78-32.303v-32.304m0 32.304h-38.78m38.78-32.304V97.912m0 32.304h-38.78m38.78-32.304V65.608m0 32.304h-38.78m38.78-32.304V33.304m0 32.304h-38.78m38.78-32.304V1m0 32.304h-38.78M1396.97 1h-38.78m0 613.774v32.303m0-32.303v-32.305m0 32.305h-38.77m38.77-32.305v-32.303m0 32.303h-38.77m38.77-32.303v-32.304m0 32.304h-38.77m38.77-32.304v-32.304m0 32.304h-38.77m38.77-32.304v-32.304m0 32.304h-38.77m38.77-32.304V420.95m0 32.304h-38.77m38.77-32.304v-32.303m0 32.303h-38.77m38.77-32.303v-32.305m0 32.305h-38.77m38.77-32.305v-32.303m0 32.303h-38.77m38.77-32.303v-32.304m0 32.304h-38.77m38.77-32.304v-32.304m0 32.304h-38.77m38.77-32.304v-32.304m0 32.304h-38.77m38.77-32.304v-32.304m0 32.304h-38.77m38.77-32.304V162.52m0 32.303h-38.77m38.77-32.303v-32.304m0 32.304h-38.77m38.77-32.304V97.912m0 32.304h-38.77m38.77-32.304V65.608m0 32.304h-38.77m38.77-32.304V33.304m0 32.304h-38.77m38.77-32.304V1m0 32.304h-38.77M1358.19 1h-38.77m0 613.774v32.303m0-32.303v-32.305m0 32.305h-38.78m38.78-32.305v-32.303m0 32.303h-38.78m38.78-32.303v-32.304m0 32.304h-38.78m38.78-32.304v-32.304m0 32.304h-38.78m38.78-32.304v-32.304m0 32.304h-38.78m38.78-32.304V420.95m0 32.304h-38.78m38.78-32.304v-32.303m0 32.303h-38.78m38.78-32.303v-32.305m0 32.305h-38.78m38.78-32.305v-32.303m0 32.303h-38.78m38.78-32.303v-32.304m0 32.304h-38.78m38.78-32.304v-32.304m0 32.304h-38.78m38.78-32.304v-32.304m0 32.304h-38.78m38.78-32.304v-32.304m0 32.304h-38.78m38.78-32.304V162.52m0 32.303h-38.78m38.78-32.303v-32.304m0 32.304h-38.78m38.78-32.304V97.912m0 32.304h-38.78m38.78-32.304V65.608m0 32.304h-38.78m38.78-32.304V33.304m0 32.304h-38.78m38.78-32.304V1m0 32.304h-38.78M1319.42 1h-38.78m0 613.774v32.303m0-32.303v-32.305m0 32.305h-38.78m38.78-32.305v-32.303m0 32.303h-38.78m38.78-32.303v-32.304m0 32.304h-38.78m38.78-32.304v-32.304m0 32.304H427.549m853.091-32.304v-32.304m0 32.304H427.549m853.091-32.304V420.95m0 32.304h-38.78m38.78-32.304v-32.303m0 32.303h-38.78m38.78-32.303v-32.305m0 32.305h-38.78m38.78-32.305v-32.303m0 32.303h-38.78m38.78-32.303v-32.304m0 32.304h-38.78m38.78-32.304v-32.304m0 32.304h-38.78m38.78-32.304v-32.304m0 32.304h-38.78m38.78-32.304v-32.304m0 32.304h-38.78m38.78-32.304V162.52m0 32.303h-38.78m38.78-32.303v-32.304m0 32.304h-38.78m38.78-32.304V97.912m0 32.304h-38.78m38.78-32.304V65.608m0 32.304h-38.78m38.78-32.304V33.304m0 32.304h-38.78m38.78-32.304V1m0 32.304h-38.78M1280.64 1h-38.78m0 613.774v32.303m0-32.303v-32.305m0 32.305h-38.77m38.77-32.305v-32.303m0 32.303h-38.77m38.77-32.303h-38.77m38.77 0v-96.912m-814.311 64.608v32.304m0-32.304v-32.304m0 32.304h-38.774m38.774-32.304v-32.304m0 32.304h-38.774m853.085-32.304V420.95m0 32.304h-38.77m38.77-32.304v-32.303m0 32.303h-38.77m38.77-32.303v-32.305m0 32.305h-38.77m38.77-32.305v-32.303m0 32.303h-38.77m38.77-32.303v-32.304m0 32.304h-38.77m38.77-32.304v-32.304m0 32.304h-38.77m38.77-32.304v-32.304m0 32.304h-38.77m38.77-32.304v-32.304m0 32.304h-38.77m38.77-32.304V162.52m0 32.303h-38.77m38.77-32.303v-32.304m0 32.304h-38.77m38.77-32.304V97.912m0 32.304h-38.77m38.77-32.304V65.608m0 32.304h-38.77m38.77-32.304V33.304m0 32.304h-38.77m38.77-32.304V1m0 32.304h-38.77M1241.86 1h-38.77m0 613.774v32.303m0-32.303v-32.305m0 32.305h-38.78m38.78-32.305v-32.303m0 32.303h-38.78m38.78-32.303h-38.78m38.78 0v-96.912m-775.541 96.912h38.774m-38.774 0v32.303m0-32.303h-38.774m0-32.304v32.304m0-32.304v-32.304m0 32.304h-38.786m77.56-64.608h38.774m-38.774 0V420.95m0 32.304h-38.774m0 32.304v-32.304m0 32.304h-38.786m853.101-32.304V420.95m0 32.304h-38.78m38.78-32.304v-32.303m0 32.303h-38.78m38.78-32.303v-32.305m0 32.305h-38.78m38.78-32.305v-32.303m0 32.303h-38.78m38.78-32.303v-32.304m0 32.304h-38.78m38.78-32.304v-32.304m0 32.304h-38.78m38.78-32.304v-32.304m0 32.304h-38.78m38.78-32.304v-32.304m0 32.304h-38.78m38.78-32.304V162.52m0 32.303h-38.78m38.78-32.303v-32.304m0 32.304h-38.78m38.78-32.304V97.912m0 32.304h-38.78m38.78-32.304V65.608m0 32.304h-38.78m38.78-32.304V33.304m0 32.304h-38.78m38.78-32.304V1m0 32.304h-38.78M1203.09 1h-38.78m0 613.774v32.303m0-32.303v-32.305m0 32.305h-38.78m38.78-32.305v-32.303m0 32.303h-38.78m38.78-32.303h-38.78m38.78 0v-96.912m-697.987 96.912h38.774m-38.774 0v32.303m0-32.303v-96.912m-38.774 129.215h38.774m-38.774 0v32.305m0-32.305h-38.774m0-32.303v32.303m0-32.303h-38.786m0-32.304v32.304m0-32.304v-32.304m0 32.304h-38.774m155.108-64.608h38.774m-38.774 0V420.95m-38.774 0h38.774m-38.774 0v-32.303m0 32.303h-38.774m0 32.304V420.95m0 32.304h-38.786m0 32.304v-32.304m0 32.304h-38.774m853.095-32.304V420.95m0 32.304H543.879m620.431-32.304v-32.303m0 32.303H543.879m620.431-32.303v-32.305m0 32.305h-38.78m38.78-32.305v-32.303m0 32.303h-38.78m38.78-32.303v-32.304m0 32.304h-38.78m38.78-32.304v-32.304m0 32.304h-38.78m38.78-32.304v-32.304m0 32.304h-38.78m38.78-32.304v-32.304m0 32.304h-38.78m38.78-32.304V162.52m0 32.303h-38.78m38.78-32.303v-32.304m0 32.304h-38.78m38.78-32.304V97.912m0 32.304h-38.78m38.78-32.304V65.608m0 32.304h-38.78m38.78-32.304V33.304m0 32.304h-38.78m38.78-32.304V1m0 32.304h-38.78M1164.31 1h-38.78m0 613.774v32.303m0-32.303v-32.305m0 32.305h-38.78m38.78-32.305v-32.303m0 32.303h-38.78m38.78-32.303h-38.78m38.78 0V388.647m-581.651 64.607v96.912m0-96.912V420.95m0 32.304h-38.782m38.782-32.304v-32.303m0 32.303h-38.782m620.433-32.303v-32.305m0 32.305h-38.78m38.78-32.305v-32.303m0 32.303h-38.78m38.78-32.303v-32.304m0 32.304h-38.78m38.78-32.304v-32.304m0 32.304h-38.78m38.78-32.304v-32.304m0 32.304h-38.78m38.78-32.304v-32.304m0 32.304h-38.78m38.78-32.304V162.52m0 32.303h-38.78m38.78-32.303v-32.304m0 32.304h-38.78m38.78-32.304V97.912m0 32.304h-38.78m38.78-32.304V65.608m0 32.304h-38.78m38.78-32.304V33.304m0 32.304h-38.78m38.78-32.304V1m0 32.304h-38.78M1125.53 1h-38.78m0 613.774v32.303m0-32.303v-32.305m0 32.305h-38.77m38.77-32.305v-32.303m0 32.303h-38.77m38.77-32.303h-38.77m38.77 0V388.647M543.879 550.166h38.776m-38.776 0v32.303m0-32.303h-38.782m0-96.912v96.912m0-96.912V420.95m38.782-32.303h38.776m-38.776 0v-32.305m0 32.305h-38.782m0 32.303v-32.303m0 32.303h-38.774m620.427-32.303v-32.305m0 32.305h-38.77m38.77-32.305v-32.303m0 32.303h-38.77m38.77-32.303v-32.304m0 32.304h-38.77m38.77-32.304v-32.304m0 32.304h-38.77m38.77-32.304v-32.304m0 32.304h-38.77m38.77-32.304v-32.304m0 32.304h-38.77m38.77-32.304V162.52m0 32.303h-38.77m38.77-32.303v-32.304m0 32.304h-38.77m38.77-32.304V97.912m0 32.304h-38.77m38.77-32.304V65.608m0 32.304h-38.77m38.77-32.304V33.304m0 32.304h-38.77m38.77-32.304V1m0 32.304h-38.77M1086.75 1h-38.77m0 613.774v32.303m0-32.303v-32.305m0 32.305h-38.78m38.78-32.305v-32.303m0 32.303h-38.78m38.78-32.303h-38.78m38.78 0V388.647M582.655 550.166h38.778m-38.778 0v32.303m0-32.303V388.647m-38.776 193.822h38.776m-38.776 0v32.305m0-32.305h-38.782m0-32.303v32.303m77.558-193.822h38.778m-38.778 0v-32.305m-38.776 0h38.776m-38.776 0v-32.303m0 32.303h-38.782m0 32.305v-32.305m0 32.305h-38.774m0 32.303v-32.303m581.657 0v-32.305m0 32.305h-38.78m38.78-32.305v-32.303m0 32.303h-38.78m38.78-32.303v-32.304m0 32.304h-38.78m38.78-32.304v-32.304m0 32.304h-38.78m38.78-32.304v-32.304m0 32.304h-38.78m38.78-32.304v-32.304m0 32.304h-38.78m38.78-32.304V162.52m0 32.303h-38.78m38.78-32.303v-32.304m0 32.304h-38.78m38.78-32.304V97.912m0 32.304h-38.78m38.78-32.304V65.608m0 32.304h-38.78m38.78-32.304V33.304m0 32.304h-38.78m38.78-32.304V1m0 32.304h-38.78M1047.98 1h-38.78m0 613.774v32.303m0-32.303v-32.305m0 32.305h-38.775m38.775-32.305v-32.303m0 32.303h-38.775m38.775-32.303h-38.775m38.775 0V388.647m0 0v-32.305m0 32.305h-38.775m38.775-32.305v-32.303m0 32.303h-38.775m38.775-32.303v-32.304m0 32.304h-38.775m38.775-32.304v-32.304m0 32.304h-38.775m38.775-32.304v-32.304m0 32.304h-38.775m38.775-32.304v-32.304m0 32.304h-38.775m38.775-32.304V162.52m0 32.303h-38.775m38.775-32.303v-32.304m0 32.304h-38.775m38.775-32.304V97.912m0 32.304h-38.775m38.775-32.304V65.608m0 32.304h-38.775m38.775-32.304V33.304m0 32.304h-38.775m38.775-32.304V1m0 32.304h-38.775M1009.2 1h-38.775m0 613.774v32.303m0-32.303v-32.305m0 32.305h-38.778m38.778-32.305v-32.303m0 32.303h-38.778m38.778-32.303h-38.778m38.778 0V388.647m0 0v-32.305m0 32.305h-38.778m38.778-32.305v-32.303m0 32.303h-38.778m38.778-32.303v-32.304m0 32.304h-38.778m38.778-32.304v-32.304m0 32.304h-38.778m38.778-32.304v-32.304m0 32.304h-38.778m38.778-32.304v-32.304m0 32.304h-38.778m38.778-32.304V162.52m0 32.303h-38.778m38.778-32.303v-32.304m0 32.304h-38.778m38.778-32.304V97.912m0 32.304h-38.778m38.778-32.304V65.608m0 32.304h-38.778m38.778-32.304V33.304m0 32.304h-38.778m38.778-32.304V1m0 32.304h-38.778M970.425 1h-38.778m0 613.774v32.303m0-32.303v-32.305m0 32.305h-38.776m38.776-32.305v-32.303m0 32.303h-38.776m38.776-32.303h-38.776m38.776 0V388.647m0 0v-32.305m0 32.305h-38.776m38.776-32.305v-32.303m0 32.303h-38.776m38.776-32.303v-32.304m0 32.304h-38.776m38.776-32.304v-32.304m0 32.304h-38.776m38.776-32.304v-32.304m0 32.304h-38.776m38.776-32.304v-32.304m0 32.304h-38.776m38.776-32.304V162.52m0 32.303h-38.776m38.776-32.303v-32.304m0 32.304h-38.776m38.776-32.304V97.912m0 32.304h-38.776m38.776-32.304V65.608m0 32.304h-38.776m38.776-32.304V33.304m0 32.304h-38.776m38.776-32.304V1m0 32.304h-38.776M931.647 1h-38.776m0 613.774v32.303m0-32.303h-38.778m38.778 0v-32.305m0 0v-32.303m0 32.303h-38.778m38.778-32.303h-38.778m38.778 0V388.647m0 0v-32.305m0 32.305h-38.778m38.778-32.305v-32.303m0 32.303h-38.778m38.778-32.303v-32.304m0 32.304h-38.778m38.778-32.304v-32.304m0 32.304h-38.778m38.778-32.304v-32.304m0 32.304h-38.778m38.778-32.304v-32.304m0 32.304h-38.778m38.778-32.304V162.52m0 32.303h-38.778m38.778-32.303v-32.304m0 32.304h-38.778m38.778-32.304V97.912m0 32.304h-38.778m38.778-32.304V65.608m0 32.304h-38.778m38.778-32.304V33.304m0 32.304h-38.778m38.778-32.304V1m0 32.304h-38.778M892.871 1h-38.778m0 613.774v32.303m0-32.303h-38.776m38.776 0v-32.305m0 0v-32.303m0 32.303h-38.776m38.776-32.303h-38.776m38.776 0V388.647m0 0v-32.305m0 32.305h-38.776m38.776-32.305v-32.303m0 32.303h-38.776m38.776-32.303v-32.304m0 32.304h-38.776m38.776-32.304v-32.304m0 32.304h-38.776m38.776-32.304v-32.304m0 32.304h-38.776m38.776-32.304v-32.304m0 32.304h-38.776m38.776-32.304V162.52m0 32.303h-38.776m38.776-32.303v-32.304m0 32.304h-38.776m38.776-32.304V97.912m0 32.304h-38.776m38.776-32.304V65.608m0 32.304h-38.776m38.776-32.304V33.304m0 32.304h-38.776m38.776-32.304V1m0 32.304h-38.776M854.093 1h-38.776m0 613.774v32.303m0-32.303h-38.776m38.776 0v-32.305m0 0v-32.303m0 32.303h-38.776m38.776-32.303h-38.776m38.776 0V388.647m0 0v-32.305m0 32.305h-38.776m38.776-32.305v-32.303m0 32.303h-38.776m38.776-32.303v-32.304m0 32.304h-38.776m38.776-32.304v-32.304m0 32.304h-38.776m38.776-32.304v-32.304m0 32.304h-38.776m38.776-32.304v-32.304m0 32.304h-38.776m38.776-32.304V162.52m0 32.303h-38.776m38.776-32.303v-32.304m0 32.304h-38.776m38.776-32.304V97.912m0 32.304h-38.776m38.776-32.304V65.608m0 32.304h-38.776m38.776-32.304V33.304m0 32.304h-38.776m38.776-32.304V1m0 32.304h-38.776M815.317 1h-38.776m0 613.774v32.303m0-32.303h-38.778m38.778 0v-32.305m0 0v-32.303m0 32.303h-38.778m38.778-32.303h-38.778m38.778 0V388.647m0 0v-32.305m0 32.305h-38.778m38.778-32.305v-32.303m0 32.303h-38.778m38.778-32.303v-32.304m0 32.304h-38.778m38.778-32.304v-32.304m0 32.304h-38.778m38.778-32.304v-32.304m0 32.304h-38.778m38.778-32.304v-32.304m0 32.304h-38.778m38.778-32.304V162.52m0 32.303h-38.778m38.778-32.303v-32.304m0 32.304h-38.778m38.778-32.304V97.912m0 32.304h-38.778m38.778-32.304V65.608m0 32.304h-38.778m38.778-32.304V33.304m0 32.304h-38.778m38.778-32.304V1m0 32.304h-38.778M776.541 1h-38.778m0 613.774v32.303m0-32.303v-32.305m0 32.305h-38.776m38.776-32.305v-32.303m0 32.303h-38.776m38.776-32.303h-38.776m38.776 0V388.647m0 0v-32.305m0 32.305h-38.776m38.776-32.305v-32.303m0 32.303h-38.776m38.776-32.303v-32.304m0 32.304h-38.776m38.776-32.304v-32.304m0 32.304h-38.776m38.776-32.304v-32.304m0 32.304h-38.776m38.776-32.304v-32.304m0 32.304h-38.776m38.776-32.304V162.52m0 32.303h-38.776m38.776-32.303v-32.304m0 32.304h-38.776m38.776-32.304V97.912m0 32.304h-38.776m38.776-32.304V65.608m0 32.304h-38.776m38.776-32.304V33.304m0 32.304h-38.776m38.776-32.304V1m0 32.304h-38.776M737.763 1h-38.776m0 613.774v32.303m0-32.303v-32.305m0 32.305h-38.778m38.778-32.305v-32.303m0 32.303h-38.778m38.778-32.303h-38.778m38.778 0V388.647m0 0v-32.305m0 32.305h-38.778m38.778-32.305v-32.303m0 32.303h-38.778m38.778-32.303v-32.304m0 32.304h-38.778m38.778-32.304v-32.304m0 32.304h-38.778m38.778-32.304v-32.304m0 32.304h-38.778m38.778-32.304v-32.304m0 32.304h-38.778m38.778-32.304V162.52m0 32.303h-38.778m38.778-32.303v-32.304m0 32.304h-38.778m38.778-32.304V97.912m0 32.304h-38.778m38.778-32.304V65.608m0 32.304h-38.778m38.778-32.304V33.304m0 32.304h-38.778m38.778-32.304V1m0 32.304h-38.778M698.987 1h-38.778m0 613.774v32.303m0-32.303v-32.305m0 32.305h-38.776m38.776-32.305v-32.303m0 32.303h-38.776m38.776-32.303h-38.776m38.776 0V388.647m0 0v-32.305m0 32.305h-38.776m38.776-32.305v-32.303m0 32.303h-38.776m38.776-32.303v-32.304m0 32.304h-38.776m38.776-32.304v-32.304m0 32.304h-38.776m38.776-32.304v-32.304m0 32.304h-38.776m38.776-32.304v-32.304m0 32.304h-38.776m38.776-32.304V162.52m0 32.303h-38.776m38.776-32.303v-32.304m0 32.304h-38.776m38.776-32.304V97.912m0 32.304h-38.776m38.776-32.304V65.608m0 32.304h-38.776m38.776-32.304V33.304m0 32.304h-38.776m38.776-32.304V1m0 32.304h-38.776M660.209 1h-38.776m0 613.774v32.303m0-32.303v-32.305m0 32.305h-38.778m38.778-32.305v-32.303m0 32.303h-38.778m38.778-32.303V388.647m0 0v-32.305m0 0v-32.303m0 32.303h-38.778m38.778-32.303v-32.304m0 32.304h-38.778m38.778-32.304v-32.304m0 32.304h-38.778m38.778-32.304v-32.304m0 32.304h-38.778m38.778-32.304v-32.304m0 32.304h-38.778m38.778-32.304V162.52m0 32.303h-38.778m38.778-32.303v-32.304m0 32.304h-38.778m38.778-32.304V97.912m0 32.304h-38.778m38.778-32.304V65.608m0 32.304h-38.778m38.778-32.304V33.304m0 32.304h-38.778m38.778-32.304V1m0 32.304h-38.778M621.433 1h-38.778m0 613.774v32.303m0-32.303v-32.305m0 32.305h-38.776m38.776-258.432v-32.303m0 0v-32.304m0 32.304h-38.776m38.776-32.304v-32.304m0 32.304h-38.776m38.776-32.304v-32.304m0 32.304h-38.776m38.776-32.304v-32.304m0 32.304h-38.776m38.776-32.304V162.52m0 32.303h-38.776m38.776-32.303v-32.304m0 32.304h-38.776m38.776-32.304V97.912m0 32.304h-38.776m38.776-32.304V65.608m0 32.304h-38.776m38.776-32.304V33.304m0 32.304h-38.776m38.776-32.304V1m0 32.304h-38.776M582.655 1h-38.776m0 613.774v32.303m0-32.303h-38.782m38.782-290.735v-32.304m0 32.304h-38.782m38.782-32.304v-32.304m0 32.304h-38.782m38.782-32.304v-32.304m0 32.304h-38.782m38.782-32.304v-32.304m0 32.304h-38.782m38.782-32.304V162.52m0 32.303h-38.782m38.782-32.303v-32.304m0 32.304h-38.782m38.782-32.304V97.912m0 32.304h-38.782m38.782-32.304V65.608m0 32.304h-38.782m38.782-32.304V33.304m0 32.304h-38.782m38.782-32.304V1m0 32.304h-38.782M543.879 1h-38.782m0 613.774v32.303m0-32.303v-32.305m0 32.305h-38.774m38.774-32.305h-38.774m38.774-226.127v-32.303m0 32.303h-38.774m38.774-32.303v-32.304m0 32.304h-38.774m38.774-32.304v-32.304m0 32.304h-38.774m38.774-32.304v-32.304m0 32.304h-38.774m38.774-32.304v-32.304m0 32.304h-38.774m38.774-32.304V162.52m0 32.303h-38.774m38.774-32.303v-32.304m0 32.304h-38.774m38.774-32.304V97.912m0 32.304h-38.774m38.774-32.304V65.608m0 32.304h-38.774m38.774-32.304V33.304m0 32.304h-38.774m38.774-32.304V1m0 32.304h-38.774M505.097 1h-38.774m0 613.774v32.303m0-32.303v-32.305m0 32.305h-38.774m38.774-226.127v-32.305m0 32.305h-38.774m38.774-32.305v-32.303m0 32.303h-38.774m38.774-32.303v-32.304m0 32.304h-38.774m38.774-32.304v-32.304m0 32.304h-38.774m38.774-32.304v-32.304m0 32.304h-38.774m38.774-32.304v-32.304m0 32.304h-38.774m38.774-32.304V162.52m0 32.303h-38.774m38.774-32.303v-32.304m0 32.304h-38.774m38.774-32.304V97.912m0 32.304h-38.774m38.774-32.304V65.608m0 32.304h-38.774m38.774-32.304V33.304m0 32.304h-38.774m38.774-32.304V1m0 32.304h-38.774M466.323 1h-38.774m0 613.774v32.303m0-32.303h-38.774m38.774-226.127v-32.305m0 32.305h-38.774m38.774-32.305v-32.303m0 32.303h-38.774m38.774-32.303v-32.304m0 32.304h-38.774m38.774-32.304v-32.304m0 32.304h-38.774m38.774-32.304v-32.304m0 32.304h-38.774m38.774-32.304v-32.304m0 32.304h-38.774m38.774-32.304V162.52m0 32.303h-38.774m38.774-32.303v-32.304m0 32.304h-38.774m38.774-32.304V97.912m0 32.304h-38.774m38.774-32.304V65.608m0 32.304h-38.774m38.774-32.304V33.304m0 32.304h-38.774m38.774-32.304V1m0 32.304h-38.774M427.549 1h-38.774m0 613.774v32.303m0-32.303v-32.305m0 32.305h-38.786m38.786-32.305h-38.786m38.786-161.519v-32.303m0 32.303h-38.786m38.786-32.303v-32.305m0 32.305h-38.786m38.786-32.305v-32.303m0 32.303h-38.786m38.786-32.303v-32.304m0 32.304h-38.786m38.786-32.304v-32.304m0 32.304h-38.786m38.786-32.304v-32.304m0 32.304h-38.786m38.786-32.304v-32.304m0 32.304h-38.786m38.786-32.304V162.52m0 32.303h-38.786m38.786-32.303v-32.304m0 32.304h-38.786m38.786-32.304V97.912m0 32.304h-38.786m38.786-32.304V65.608m0 32.304h-38.786m38.786-32.304V33.304m0 32.304h-38.786m38.786-32.304V1m0 32.304h-38.786M388.775 1h-38.786m0 613.774v32.303m0-32.303v-32.305m0 32.305h-38.774m38.774-32.305v-32.303m0 32.303h-38.774m38.774-32.303h-38.774m38.774-96.912V420.95m0 32.304h-38.774m38.774-32.304v-32.303m0 32.303h-38.774m38.774-32.303v-32.305m0 32.305h-38.774m38.774-32.305v-32.303m0 32.303h-38.774m38.774-32.303v-32.304m0 32.304h-38.774m38.774-32.304v-32.304m0 32.304h-38.774m38.774-32.304v-32.304m0 32.304h-38.774m38.774-32.304v-32.304m0 32.304h-38.774m38.774-32.304V162.52m0 32.303h-38.774m38.774-32.303v-32.304m0 32.304h-38.774m38.774-32.304V97.912m0 32.304h-38.774m38.774-32.304V65.608m0 32.304h-38.774m38.774-32.304V33.304m0 32.304h-38.774m38.774-32.304V1m0 32.304h-38.774M349.989 1h-38.774m0 613.774v32.303m0-32.303v-32.305m0 32.305h-38.774m38.774-32.305v-32.303m0 32.303h-38.774m38.774-32.303v-32.304m0 32.304h-38.774m38.774-32.304v-32.304m0 32.304h-38.774m38.774-32.304v-32.304m0 32.304h-38.774m38.774-32.304V420.95m0 32.304h-38.774m38.774-32.304v-32.303m0 32.303h-38.774m38.774-32.303v-32.305m0 32.305h-38.774m38.774-32.305v-32.303m0 32.303h-38.774m38.774-32.303v-32.304m0 32.304h-38.774m38.774-32.304v-32.304m0 32.304h-38.774m38.774-32.304v-32.304m0 32.304h-38.774m38.774-32.304v-32.304m0 32.304h-38.774m38.774-32.304V162.52m0 32.303h-38.774m38.774-32.303v-32.304m0 32.304h-38.774m38.774-32.304V97.912m0 32.304h-38.774m38.774-32.304V65.608m0 32.304h-38.774m38.774-32.304V33.304m0 32.304h-38.774m38.774-32.304V1m0 32.304h-38.774M311.215 1h-38.774m0 613.774v32.303m0-32.303v-32.305m0 32.305h-38.774m38.774-32.305v-32.303m0 32.303h-38.774m38.774-32.303v-32.304m0 32.304h-38.774m38.774-32.304v-32.304m0 32.304h-38.774m38.774-32.304v-32.304m0 32.304h-38.774m38.774-32.304V420.95m0 32.304h-38.774m38.774-32.304h-38.774m38.774 0v-32.303m0 0v-32.305m0 32.305h-38.774m38.774-32.305v-32.303m0 32.303h-38.774m38.774-32.303v-32.304m0 32.304h-38.774m38.774-32.304v-32.304m0 32.304h-38.774m38.774-32.304v-32.304m0 32.304h-38.774m38.774-32.304v-32.304m0 32.304h-38.774m38.774-32.304V162.52m0 32.303h-38.774m38.774-32.303v-32.304m0 32.304h-38.774m38.774-32.304V97.912m0 32.304h-38.774m38.774-32.304V65.608m0 32.304h-38.774m38.774-32.304V33.304m0 32.304h-38.774m38.774-32.304V1m0 32.304h-38.774M272.441 1h-38.774m0 613.774v32.303m0-32.303v-32.305m0 32.305h-38.774m38.774-32.305v-32.303m0 32.303h-38.774m38.774-32.303v-32.304m0 32.304h-38.774m38.774-32.304v-32.304m0 32.304h-38.774m38.774-32.304v-32.304m0 32.304h-38.774m38.774-32.304V420.95m0 32.304h-38.774m38.774-32.304v-32.303m0 32.303h-38.774m38.774-32.303v-32.305m0 32.305h-38.774m38.774-32.305v-32.303m0 32.303h-38.774m38.774-32.303v-32.304m0 32.304h-38.774m38.774-32.304v-32.304m0 32.304h-38.774m38.774-32.304v-32.304m0 32.304h-38.774m38.774-32.304v-32.304m0 32.304h-38.774m38.774-32.304V162.52m0 32.303h-38.774m38.774-32.303v-32.304m0 32.304h-38.774m38.774-32.304V97.912m0 32.304h-38.774m38.774-32.304V65.608m0 32.304h-38.774m38.774-32.304V33.304m0 32.304h-38.774m38.774-32.304V1m0 32.304h-38.774M233.667 1h-38.774m0 613.774v32.303m0-32.303v-32.305m0 32.305h-38.786m38.786-32.305v-32.303m0 32.303h-38.786m38.786-32.303v-32.304m0 32.304h-38.786m38.786-32.304v-32.304m0 32.304h-38.786m38.786-32.304v-32.304m0 32.304h-38.786m38.786-32.304V420.95m0 32.304h-38.786m38.786-32.304v-32.303m0 32.303h-38.786m38.786-32.303v-32.305m0 32.305h-38.786m38.786-32.305v-32.303m0 32.303h-38.786m38.786-32.303v-32.304m0 32.304h-38.786m38.786-32.304v-32.304m0 32.304h-38.786m38.786-32.304v-32.304m0 32.304h-38.786m38.786-32.304v-32.304m0 32.304h-38.786m38.786-32.304V162.52m0 32.303h-38.786m38.786-32.303v-32.304m0 32.304h-38.786m38.786-32.304V97.912m0 32.304h-38.786m38.786-32.304V65.608m0 32.304h-38.786m38.786-32.304V33.304m0 32.304h-38.786m38.786-32.304V1m0 32.304h-38.786M194.893 1h-38.786m0 613.774v32.303m0-32.303v-32.305m0 32.305h-38.774m38.774-32.305v-32.303m0 32.303h-38.774m38.774-32.303v-32.304m0 32.304h-38.774m38.774-32.304v-32.304m0 32.304h-38.774m38.774-32.304v-32.304m0 32.304h-38.774m38.774-32.304V420.95m0 32.304h-38.774m38.774-32.304v-32.303m0 32.303h-38.774m38.774-32.303v-32.305m0 32.305h-38.774m38.774-32.305v-32.303m0 32.303h-38.774m38.774-32.303v-32.304m0 32.304h-38.774m38.774-32.304v-32.304m0 32.304h-38.774m38.774-32.304v-32.304m0 32.304h-38.774m38.774-32.304v-32.304m0 32.304h-38.774m38.774-32.304V162.52m0 32.303h-38.774m38.774-32.303v-32.304m0 32.304h-38.774m38.774-32.304V97.912m0 32.304h-38.774m38.774-32.304V65.608m0 32.304h-38.774m38.774-32.304V33.304m0 32.304h-38.774m38.774-32.304V1m0 32.304h-38.774M156.107 1h-38.774m0 613.774v32.303m0-32.303v-32.305m0 32.305H78.56m38.773-32.305v-32.303m0 32.303H78.56m38.773-32.303v-32.304m0 32.304H78.56m38.773-32.304v-32.304m0 32.304H78.56m38.773-32.304v-32.304m0 32.304H78.56m38.773-32.304V420.95m0 32.304H78.56m38.773-32.304v-32.303m0 32.303H78.56m38.773-32.303v-32.305m0 32.305H78.56m38.773-32.305v-32.303m0 32.303H78.56m38.773-32.303v-32.304m0 32.304H78.56m38.773-32.304v-32.304m0 32.304H78.56m38.773-32.304v-32.304m0 32.304H78.56m38.773-32.304v-32.304m0 32.304H78.56m38.773-32.304V162.52m0 32.303H78.56m38.773-32.303v-32.304m0 32.304H78.56m38.773-32.304V97.912m0 32.304H78.56m38.773-32.304V65.608m0 32.304H78.56m38.773-32.304V33.304m0 32.304H78.56m38.773-32.304V1m0 32.304H78.56M117.333 1H78.56m0 613.774v32.303m0-32.303v-32.305m0 32.305H39.786m38.774-32.305v-32.303m0 32.303H39.786m38.774-32.303v-32.304m0 32.304H39.786m38.774-32.304v-32.304m0 32.304H39.786m38.774-32.304v-32.304m0 32.304H39.786m38.774-32.304V420.95m0 32.304H39.786M78.56 420.95v-32.303m0 32.303H39.786m38.774-32.303v-32.305m0 32.305H39.786m38.774-32.305v-32.303m0 32.303H39.786m38.774-32.303v-32.304m0 32.304H39.786m38.774-32.304v-32.304m0 32.304H39.786m38.774-32.304v-32.304m0 32.304H39.786m38.774-32.304v-32.304m0 32.304H39.786m38.774-32.304V162.52m0 32.303H39.786M78.56 162.52v-32.304m0 32.304H39.786m38.774-32.304V97.912m0 32.304H39.786M78.56 97.912V65.608m0 32.304H39.786M78.56 65.608V33.304m0 32.304H39.786M78.56 33.304V1m0 32.304H39.786M78.56 1H39.786m0 613.774v32.303m0-32.303v-32.305m0 32.305H1m38.786-32.305v-32.303m0 32.303H1m38.786-32.303v-32.304m0 32.304H1m38.786-32.304v-32.304m0 32.304H1m38.786-32.304v-32.304m0 32.304H1m38.786-32.304V420.95m0 32.304H1m38.786-32.304v-32.303m0 32.303H1m38.786-32.303v-32.305m0 32.305H1m38.786-32.305v-32.303m0 32.303H1m38.786-32.303v-32.304m0 32.304H1m38.786-32.304v-32.304m0 32.304H1m38.786-32.304v-32.304m0 32.304H1m38.786-32.304v-32.304m0 32.304H1m38.786-32.304V162.52m0 32.303H1m38.786-32.303v-32.304m0 32.304H1m38.786-32.304V97.912m0 32.304H1m38.786-32.304V65.608m0 32.304H1m38.786-32.304V33.304m0 32.304H1m38.786-32.304V1m0 32.304H1M39.786 1H1v32.304m0 581.47v32.303m0-32.303v-32.305m0 0v-32.303m0 0v-32.304m0 0v-32.304m0 0v-32.304m0 0V420.95m0 0v-32.303m0 0v-32.305m0 0v-32.303m0 0v-32.304m0 0v-32.304m0 0v-32.304m0 0v-32.304m0 0V162.52m0 0v-32.304m0 0V97.912m0 0V65.608m0 0V33.304" opacity=".6"/><defs><linearGradient id="a" x1="198.87" x2="1602.95" y1="364.851" y2="364.851" gradientUnits="userSpaceOnUse"><stop stop-color="#fff" stop-opacity="0"/><stop offset=".49" stop-color="#fff"/><stop offset="1" stop-color="#fff" stop-opacity="0"/></linearGradient></defs></svg>